<mxfile host="app.diagrams.net" modified="2022-05-10T12:13:36.382Z" agent="5.0 (Macintosh; Intel Mac OS X 10_15_7) AppleWebKit/537.36 (KHTML, like Gecko) Chrome/100.0.4896.127 Safari/537.36" etag="JLm7pgHHinej0uoGSLHr" version="18.0.2" type="github">
  <diagram id="KOkDqzJcssRNPK5AgHiv" name="Page-1">
    <mxGraphModel dx="1181" dy="645" grid="1" gridSize="10" guides="1" tooltips="1" connect="1" arrows="1" fold="1" page="1" pageScale="1" pageWidth="827" pageHeight="1169" math="0" shadow="0">
      <root>
        <mxCell id="0" />
        <mxCell id="1" parent="0" />
        <mxCell id="KWDm4B79LcpKZZDQ7uHa-1" value="服务器" style="ellipse;whiteSpace=wrap;html=1;" vertex="1" parent="1">
          <mxGeometry x="340" y="180" width="120" height="80" as="geometry" />
        </mxCell>
        <mxCell id="KWDm4B79LcpKZZDQ7uHa-2" value="" style="sketch=0;pointerEvents=1;shadow=0;dashed=0;html=1;strokeColor=none;fillColor=#505050;labelPosition=center;verticalLabelPosition=bottom;verticalAlign=top;outlineConnect=0;align=center;shape=mxgraph.office.devices.cell_phone_generic;" vertex="1" parent="1">
          <mxGeometry x="100" y="390" width="20" height="40" as="geometry" />
        </mxCell>
        <mxCell id="KWDm4B79LcpKZZDQ7uHa-3" value="" style="verticalLabelPosition=bottom;html=1;verticalAlign=top;align=center;strokeColor=none;fillColor=#00BEF2;shape=mxgraph.azure.mobile_services;pointerEvents=1;" vertex="1" parent="1">
          <mxGeometry x="150" y="390" width="21.64" height="39.5" as="geometry" />
        </mxCell>
        <mxCell id="KWDm4B79LcpKZZDQ7uHa-5" value="" style="sketch=0;aspect=fixed;pointerEvents=1;shadow=0;dashed=0;html=1;strokeColor=none;labelPosition=center;verticalLabelPosition=bottom;verticalAlign=top;align=center;fillColor=#00188D;shape=mxgraph.azure.computer" vertex="1" parent="1">
          <mxGeometry x="200" y="390" width="44.44" height="40" as="geometry" />
        </mxCell>
        <mxCell id="KWDm4B79LcpKZZDQ7uHa-9" value="ios" style="text;html=1;align=center;verticalAlign=middle;resizable=0;points=[];autosize=1;strokeColor=none;fillColor=none;" vertex="1" parent="1">
          <mxGeometry x="95" y="440" width="30" height="20" as="geometry" />
        </mxCell>
        <mxCell id="KWDm4B79LcpKZZDQ7uHa-10" value="Android" style="text;html=1;align=center;verticalAlign=middle;resizable=0;points=[];autosize=1;strokeColor=none;fillColor=none;" vertex="1" parent="1">
          <mxGeometry x="130.82" y="440" width="60" height="20" as="geometry" />
        </mxCell>
        <mxCell id="KWDm4B79LcpKZZDQ7uHa-11" value="PC" style="text;html=1;align=center;verticalAlign=middle;resizable=0;points=[];autosize=1;strokeColor=none;fillColor=none;" vertex="1" parent="1">
          <mxGeometry x="207.22" y="440" width="30" height="20" as="geometry" />
        </mxCell>
        <mxCell id="KWDm4B79LcpKZZDQ7uHa-12" value="" style="sketch=0;pointerEvents=1;shadow=0;dashed=0;html=1;strokeColor=none;fillColor=#505050;labelPosition=center;verticalLabelPosition=bottom;verticalAlign=top;outlineConnect=0;align=center;shape=mxgraph.office.devices.cell_phone_generic;" vertex="1" parent="1">
          <mxGeometry x="565" y="390" width="20" height="40" as="geometry" />
        </mxCell>
        <mxCell id="KWDm4B79LcpKZZDQ7uHa-13" value="" style="verticalLabelPosition=bottom;html=1;verticalAlign=top;align=center;strokeColor=none;fillColor=#00BEF2;shape=mxgraph.azure.mobile_services;pointerEvents=1;" vertex="1" parent="1">
          <mxGeometry x="615" y="390" width="21.64" height="39.5" as="geometry" />
        </mxCell>
        <mxCell id="KWDm4B79LcpKZZDQ7uHa-14" value="" style="sketch=0;aspect=fixed;pointerEvents=1;shadow=0;dashed=0;html=1;strokeColor=none;labelPosition=center;verticalLabelPosition=bottom;verticalAlign=top;align=center;fillColor=#00188D;shape=mxgraph.azure.computer" vertex="1" parent="1">
          <mxGeometry x="665" y="390" width="44.44" height="40" as="geometry" />
        </mxCell>
        <mxCell id="KWDm4B79LcpKZZDQ7uHa-15" value="ios" style="text;html=1;align=center;verticalAlign=middle;resizable=0;points=[];autosize=1;strokeColor=none;fillColor=none;" vertex="1" parent="1">
          <mxGeometry x="560" y="440" width="30" height="20" as="geometry" />
        </mxCell>
        <mxCell id="KWDm4B79LcpKZZDQ7uHa-16" value="Android" style="text;html=1;align=center;verticalAlign=middle;resizable=0;points=[];autosize=1;strokeColor=none;fillColor=none;" vertex="1" parent="1">
          <mxGeometry x="595.8199999999999" y="440" width="60" height="20" as="geometry" />
        </mxCell>
        <mxCell id="KWDm4B79LcpKZZDQ7uHa-17" value="PC" style="text;html=1;align=center;verticalAlign=middle;resizable=0;points=[];autosize=1;strokeColor=none;fillColor=none;" vertex="1" parent="1">
          <mxGeometry x="672.22" y="440" width="30" height="20" as="geometry" />
        </mxCell>
        <mxCell id="KWDm4B79LcpKZZDQ7uHa-18" value="" style="shape=flexArrow;endArrow=classic;html=1;rounded=0;" edge="1" parent="1">
          <mxGeometry width="50" height="50" relative="1" as="geometry">
            <mxPoint x="194.44" y="360" as="sourcePoint" />
            <mxPoint x="330" y="250" as="targetPoint" />
          </mxGeometry>
        </mxCell>
        <mxCell id="KWDm4B79LcpKZZDQ7uHa-19" value="" style="shape=flexArrow;endArrow=classic;html=1;rounded=0;" edge="1" parent="1">
          <mxGeometry width="50" height="50" relative="1" as="geometry">
            <mxPoint x="470" y="260" as="sourcePoint" />
            <mxPoint x="610" y="370" as="targetPoint" />
          </mxGeometry>
        </mxCell>
        <mxCell id="KWDm4B79LcpKZZDQ7uHa-20" value="&lt;font color=&quot;#ff0000&quot; style=&quot;font-size: 18px;&quot;&gt;&lt;b&gt;上行&lt;/b&gt;&lt;/font&gt;" style="text;html=1;align=center;verticalAlign=middle;resizable=0;points=[];autosize=1;strokeColor=none;fillColor=none;" vertex="1" parent="1">
          <mxGeometry x="190.82" y="280" width="50" height="20" as="geometry" />
        </mxCell>
        <mxCell id="KWDm4B79LcpKZZDQ7uHa-21" value="&lt;font color=&quot;#009900&quot; style=&quot;font-size: 18px;&quot;&gt;&lt;b style=&quot;&quot;&gt;下行&lt;/b&gt;&lt;/font&gt;" style="text;html=1;align=center;verticalAlign=middle;resizable=0;points=[];autosize=1;strokeColor=none;fillColor=none;" vertex="1" parent="1">
          <mxGeometry x="545.8199999999999" y="280" width="50" height="20" as="geometry" />
        </mxCell>
        <mxCell id="KWDm4B79LcpKZZDQ7uHa-23" value="&lt;font color=&quot;#cc0000&quot;&gt;inbound&lt;/font&gt;" style="text;html=1;align=center;verticalAlign=middle;resizable=0;points=[];autosize=1;strokeColor=none;fillColor=none;fontSize=14;fontColor=#000000;" vertex="1" parent="1">
          <mxGeometry x="237.22" y="330" width="70" height="20" as="geometry" />
        </mxCell>
        <mxCell id="KWDm4B79LcpKZZDQ7uHa-24" value="&lt;font color=&quot;#00994d&quot;&gt;outbound&lt;/font&gt;" style="text;html=1;align=center;verticalAlign=middle;resizable=0;points=[];autosize=1;strokeColor=none;fillColor=none;fontSize=14;fontColor=#CC0000;" vertex="1" parent="1">
          <mxGeometry x="475.82" y="330" width="70" height="20" as="geometry" />
        </mxCell>
      </root>
    </mxGraphModel>
  </diagram>
</mxfile>
